<?xml version="1.0" encoding="utf-8"?>
<!-- Generator: Adobe Illustrator 22.0.1, SVG Export Plug-In . SVG Version: 6.00 Build 0)  -->
<svg version="1.1" id="Layer_1" xmlns="http://www.w3.org/2000/svg" xmlns:xlink="http://www.w3.org/1999/xlink" x="0px" y="0px"
	 viewBox="0 0 792 612" style="enable-background:new 0 0 792 612;" xml:space="preserve">
<style type="text/css">
	.st0{fill:none;stroke:#010101;stroke-miterlimit:10;}
	.st1{font-family:'PolenoMedium';}
	.st2{font-size:70.7118px;}
	.st3{fill:none;stroke:#000000;stroke-miterlimit:10;}
</style>
<rect x="185.2" y="112.8" transform="matrix(1 -4.163398e-03 4.163398e-03 1 -1.1133 1.7237)" class="st0" width="456.5" height="311"/>
<ellipse class="st0" cx="544.3" cy="279.1" rx="63.2" ry="63.2"/>
<ellipse class="st0" cx="344.5" cy="284.6" rx="96.7" ry="96.7"/>
<circle class="st0" cx="342.9" cy="287" r="22"/>
<circle class="st0" cx="544.3" cy="279.1" r="22"/>
<circle class="st0" cx="463.8" cy="373.2" r="23.6"/>
<ellipse transform="matrix(1 -4.163398e-03 4.163398e-03 1 -0.9179 2.4798)" class="st0" cx="595.2" cy="221.7" rx="5.2" ry="6.8"/>
<ellipse transform="matrix(1 -4.163398e-03 4.163398e-03 1 -1.3939 2.4819)" class="st0" cx="595.4" cy="336" rx="5.2" ry="6.8"/>
<ellipse transform="matrix(1 -4.163398e-03 4.163398e-03 1 -1.397 2.0409)" class="st0" cx="489.5" cy="336.6" rx="5.2" ry="6.8"/>
<ellipse transform="matrix(1 -4.163398e-03 4.163398e-03 1 -0.921 2.0388)" class="st0" cx="489.2" cy="222.2" rx="5.2" ry="6.8"/>
<ellipse transform="matrix(1 -4.163398e-03 4.163398e-03 1 -1.5711 1.753)" class="st0" cx="420.3" cy="378.2" rx="5.2" ry="6.8"/>
<ellipse transform="matrix(1 -4.163398e-03 4.163398e-03 1 -0.7994 1.7449)" class="st0" cx="418.7" cy="192.9" rx="5.2" ry="6.8"/>
<ellipse transform="matrix(1 -4.163398e-03 4.163398e-03 1 -1.5431 1.0543)" class="st0" cx="252.5" cy="371.2" rx="5.2" ry="6.8"/>
<ellipse transform="matrix(1 -4.163398e-03 4.163398e-03 1 -0.7746 1.0407)" class="st0" cx="249.6" cy="186.6" rx="5.2" ry="6.8"/>
<text transform="matrix(0.7096 -4.412445e-03 6.218035e-03 1 358.2527 168.1469)" class="st1 st2">CHOSEN-X</text>
<rect x="351.7" y="111.8" class="st3" width="289.5" height="67"/>
<polyline points="180,112.8 130,73 600.7,73 641.2,112.8 "/>
<polygon points="130,73 130,373.2 185.9,424.7 190,424.7 184.6,113.7 "/>
</svg>
